<?xml version="1.0" standalone="no"?>
<!DOCTYPE svg PUBLIC "-//W3C//DTD SVG 20010904//EN"
 "http://www.w3.org/TR/2001/REC-SVG-20010904/DTD/svg10.dtd">
<svg version="1.0" xmlns="http://www.w3.org/2000/svg"
 width="260.000000pt" height="260.000000pt" viewBox="0 0 260.000000 260.000000"
 preserveAspectRatio="xMidYMid meet">
<metadata>
Created by potrace 1.11, written by Peter Selinger 2001-2013
</metadata>
<g transform="translate(0.000000,260.000000) scale(0.100000,-0.100000)"
fill="#000000" stroke="none">
<path d="M0 1300 l0 -1300 1300 0 1300 0 0 1300 0 1300 -1300 0 -1300 0 0
-1300z m1250 746 l0 -333 -114 -67 c-62 -36 -116 -66 -120 -66 -3 0 -5 149 -4
332 l3 332 115 67 c63 37 116 68 118 68 1 1 2 -149 2 -333z m273 237 l67 -37
-2 -365 -3 -365 -265 -153 c-146 -84 -295 -170 -332 -190 l-68 -37 0 -359 c0
-284 -3 -358 -13 -355 -7 2 -60 30 -119 63 l-107 60 2 754 2 755 109 63 c60
35 113 63 117 63 5 0 9 -171 9 -380 0 -209 2 -380 4 -380 3 0 306 173 399 228
l27 16 0 359 0 359 53 -31 c28 -17 82 -48 120 -68z m295 -171 l112 -64 0 -748
0 -748 -116 -66 c-63 -36 -117 -66 -120 -66 -2 0 -4 171 -4 380 0 209 -3 380
-7 380 -5 0 -104 -55 -220 -122 l-213 -122 -2 -357 -3 -356 -115 67 -115 66 0
363 0 362 338 196 337 195 0 355 c0 195 4 353 8 351 4 -1 58 -32 120 -66z
m-1240 -1157 l-3 -345 -105 60 c-58 33 -111 68 -117 77 -19 25 -18 1081 1
1106 7 9 60 44 117 77 l104 60 3 -345 c1 -190 1 -500 0 -690z m1549 979 c54
-31 108 -68 120 -82 l23 -27 0 -518 c0 -437 -2 -522 -15 -547 -10 -19 -49 -48
-121 -89 -58 -34 -108 -61 -110 -61 -2 0 -4 311 -4 690 0 380 2 690 4 690 3 0
49 -25 103 -56z m-537 -1247 l0 -332 -57 -33 c-32 -17 -86 -48 -120 -67 l-63
-36 0 334 0 335 113 65 c61 36 115 65 120 66 4 1 7 -149 7 -332z"/>
</g>
</svg>
